<svg height="512pt" viewBox="0 -31 512 512" width="512pt" xmlns="http://www.w3.org/2000/svg"><path d="m446.503906 270h-65.960937l-54-150h-141.085938l-54 150h-65.960937l-65.496094 180h512zm-239.960937-120h98.914062l43.199219 120c-20.597656 0-165.425781 0-185.3125 0zm-163.703125 270 43.664062-120h99.339844l48 120zm213.160156-25.386719-37.84375-94.613281h75.6875zm70.15625-94.613281h99.339844l43.664062 120h-191.003906zm0 0"/><path d="m241 0h30v75h-30zm0 0"/><path d="m163 21 45 60-24 18-45-60zm0 0"/><path d="m349 21 24 18-45 60-24-18zm0 0"/></svg>