<svg height="512pt" viewBox="0 0 512 512" width="512pt" xmlns="http://www.w3.org/2000/svg"><path d="m270 152h-210v120h210zm-30 90h-150v-60h150zm0 0"/><path d="m90 302h30v30h-30zm0 0"/><path d="m150 302h30v30h-30zm0 0"/><path d="m210 302h30v30h-30zm0 0"/><path d="m90 362h30v30h-30zm0 0"/><path d="m150 362h30v30h-30zm0 0"/><path d="m210 362h30v30h-30zm0 0"/><path d="m90 422h30v30h-30zm0 0"/><path d="m150 422h30v30h-30zm0 0"/><path d="m210 422h30v30h-30zm0 0"/><path d="m512 122h-182v-30h-60v-92h-210v92h-60v228.539062l30 60v131.460938h270v-131.460938l24.269531-48.539062h187.730469zm-30 30v30h-152v-30zm-392-122h150v62h-150zm210 283.460938-30 60v108.539062h-210v-108.539062l-30-60v-191.460938h270zm30-11.460938v-90h152v90zm0 0"/><path d="m392 242h60v30h-60zm0 0"/></svg>