<svg height="512pt" viewBox="0 0 512 512" width="512pt" xmlns="http://www.w3.org/2000/svg"><path d="m431.738281 346.894531 73.46875-52.253906-131.597656-21.460937c10.761719-24.539063 16.390625-51.148438 16.390625-78.179688 0-107.523438-87.476562-195-195-195s-195 87.476562-195 195 87.476562 195 195 195c26.609375 0 53.023438-5.507812 77.320312-16.011719l20.085938 130.566407 54.230469-73.070313 80.515625 80.515625 84.847656-84.847656zm-236.738281 13.105469c-90.980469 0-165-74.019531-165-165s74.019531-165 165-165 165 74.019531 165 165c0 25.480469-5.910156 50.511719-17.152344 73.160156l-31.265625-5.097656c11.96875-20.539062 18.417969-44.109375 18.417969-68.0625 0-74.4375-60.5625-135-135-135s-135 60.5625-135 135 60.5625 135 135 135c23.9375 0 47.300781-6.371094 67.75-18.230469l4.824219 31.375c-22.464844 11.035157-47.410157 16.855469-72.574219 16.855469zm-15-237.421875c-17.460938 6.195313-30 22.867187-30 42.421875 0 24.8125 20.1875 45 45 45 8.269531 0 15 6.730469 15 15s-6.730469 15-15 15-15-6.730469-15-15h-30c0 19.554688 12.539062 36.226562 30 42.421875v31.503906c-50.816406-7.304687-90-51.121093-90-103.925781s39.183594-96.621094 90-103.925781zm30 144.84375c17.460938-6.195313 30-22.867187 30-42.421875 0-24.8125-20.1875-45-45-45-8.269531 0-15-6.730469-15-15s6.730469-15 15-15 15 6.730469 15 15h30c0-19.554688-12.539062-36.226562-30-42.421875v-31.503906c50.816406 7.304687 90 51.121093 90 103.925781 0 22.9375-7.203125 44.558594-20.839844 62.777344l-25.351562-4.136719 3.925781 25.53125c-14.039063 10.46875-30.457031 17.238281-47.734375 19.734375zm133.269531 118.265625-32.136719 43.296875-21.394531-139.085937 138.597657 22.601562-42.902344 30.515625 84.140625 84.136719-42.417969 42.421875zm0 0"/></svg>