<svg height="512pt" viewBox="0 0 512 512" width="512pt" xmlns="http://www.w3.org/2000/svg"><path d="m512 0h-512v392h121v120h270v-120h121zm-30 30v212h-452v-212zm-391 332v-30h30v30zm60-30h30v150h-30zm90 0v150h-30v-150zm30 150v-150h90v150zm120-150h30v30h-30zm60 30v-60h-390v60h-31v-90h452v90zm0 0"/><path d="m391 62h-270v150h270zm-30 120h-210v-90h210zm0 0"/><path d="m61 62h30v30h-30zm0 0"/><path d="m61 122h30v30h-30zm0 0"/><path d="m61 182h30v30h-30zm0 0"/><path d="m421 182h30v30h-30zm0 0"/><path d="m421 122h30v30h-30zm0 0"/><path d="m421 62h30v30h-30zm0 0"/><path d="m301 392h30v60h-30zm0 0"/></svg>