<svg height="512pt" viewBox="0 0 512 512" width="512pt" xmlns="http://www.w3.org/2000/svg"><path d="m512 119v-45.539062l-36.730469-73.460938h-438.539062l-36.730469 73.460938v45.539062c0 23.0625 12.464844 43.257812 31 54.238281v218.761719h-31v45c0 41.355469 33.644531 75 75 75h362c41.355469 0 75-33.644531 75-75v-45h-31v-218.761719c18.535156-10.980469 31-31.175781 31-54.238281zm-63 33c-18.425781 0-33.996094-15.105469-34-32.988281 0-.003907 0-.007813 0-.011719v-27h67v27c0 18.195312-14.804688 33-33 33zm-323-33v-27h67v27c0 18.195312-14.804688 33-33 33-18.425781 0-33.992188-15.105469-34-32.988281 0-.003907 0-.007813 0-.011719zm97-27h66v27c0 18.195312-14.804688 33-33 33s-33-14.804688-33-33zm96 0h66v27.011719c-.003906 18.191406-14.808594 32.988281-33 32.988281-18.195312 0-33-14.804688-33-33zm137.730469-62 16 32h-433.460938l16-32zm-426.730469 62h66v27 .011719c-.003906 18.191406-14.808594 32.988281-33 32.988281-18.195312 0-33-14.804688-33-33zm452 345c0 24.8125-20.1875 45-45 45h-362c-24.8125 0-45-20.1875-45-45v-15h91v30h270v-30h91zm-31-45h-90v30h-210v-30h-90v-210.050781c.664062.019531 1.328125.050781 2 .050781 19.316406 0 36.621094-8.746094 48.1875-22.476562 1.238281 1.4375 2.535156 2.832031 3.917969 4.175781 12.140625 11.800781 28.085937 18.300781 44.894531 18.300781 19.214844 0 36.433594-8.65625 48-22.261719 11.566406 13.605469 28.785156 22.261719 48 22.261719s36.433594-8.65625 48-22.261719c11.566406 13.605469 28.785156 22.261719 48 22.261719 19.316406 0 36.621094-8.746094 48.1875-22.476562 1.238281 1.4375 2.539062 2.832031 3.917969 4.171874 12.140625 11.804688 28.085937 18.304688 44.894531 18.304688.671875 0 1.335938-.03125 2-.050781zm0 0"/><path d="m91 302h150v-90h-150zm30-60h90v30h-90zm0 0"/><path d="m271 302h150v-90h-150zm30-60h90v30h-90zm0 0"/><path d="m91 332h150v30h-150zm0 0"/><path d="m271 332h150v30h-150zm0 0"/></svg>