<svg height="512pt" viewBox="0 -31 512 512" width="512pt" xmlns="http://www.w3.org/2000/svg"><path d="m0 0v450h512v-450zm482 60h-91v-30h91zm-121-30v30h-331v-30zm-331 390v-330h452v330zm0 0"/><path d="m61 120h120v30h-120zm0 0"/><path d="m61 180h120v30h-120zm0 0"/><path d="m61 240h120v30h-120zm0 0"/><path d="m61 360h120v30h-120zm0 0"/><path d="m61 300h120v30h-120zm0 0"/><path d="m286 300h130.8125l40-120h-155.8125v-15c0-24.8125-20.1875-45-45-45h-45v30h45c8.269531 0 15 6.730469 15 15v107.578125c-17.460938 6.195313-30 22.867187-30 42.421875 0 24.8125 20.1875 45 45 45h15v30h30v-30h60v30h30v-30h30v-30h-165c-8.269531 0-15-6.730469-15-15s6.730469-15 15-15zm109.1875-30h-94.1875v-60h114.1875zm0 0"/></svg>