<svg height="511pt" viewBox="0 1 511 511.999" width="511pt" xmlns="http://www.w3.org/2000/svg"><path d="m503.160156 272.292969c-3.265625-6.011719-7.285156-11.523438-11.933594-16.394531 4.648438-4.875 8.667969-10.382813 11.933594-16.394532 9.816406-18.085937 11.960938-39.019531 6.03125-58.949218-5.203125-17.464844-12.296875-34.519532-21.09375-50.710938-13.179687-24.171875-38.214844-39.355469-65.605468-39.890625-.226563-9.8125-2.339844-19.609375-6.296876-28.742187-6.78125-15.660157-18.707031-28.742188-33.589843-36.851563-16.171875-8.785156-33.226563-15.878906-50.703125-21.085937-7.300782-2.171876-14.808594-3.273438-22.304688-3.273438-19.941406 0-38.945312 7.863281-53.027344 21.320312-14.082031-13.457031-33.082031-21.320312-53.027343-21.320312-7.496094 0-15 1.101562-22.3125 3.273438-17.46875 5.207031-34.527344 12.300781-50.707031 21.09375-14.867188 8.097656-26.789063 21.179687-33.574219 36.835937-3.929688 9.078125-6.046875 18.8125-6.296875 28.566406-3.085938.046875-6.214844.289063-9.367188.726563-23.574218 3.394531-44.492187 17.90625-55.964844 38.828125-9.117187 16.660156-16.453124 34.414062-21.8125 52.78125-6.648437 22.859375-2.089843 47.867187 12.191407 66.898437 1.820312 2.425782 3.773437 4.722656 5.851562 6.886719-2.089843 2.171875-4.050781 4.480469-5.878906 6.914063-14.265625 19.015624-18.820313 44.023437-12.175781 66.910156 5.332031 18.273437 12.683594 36.035156 21.855468 52.789062 11.445313 20.90625 32.371094 35.402344 55.949219 38.777344 2.835938.410156 5.726563.65625 8.625.726562.054688 2.996094.289063 6 .710938 9.003907 3.273437 23.261719 17.492187 43.96875 38.054687 55.40625 17.140625 9.5 35.328125 17.085937 54.09375 22.5625 6.917969 2.003906 14.066406 3.019531 21.242188 3.019531 16.335937 0 32.542968-5.398438 45.636718-15.207031 2.523438-1.890625 4.902344-3.925781 7.144532-6.097657 14.058594 13.324219 32.960937 21.097657 52.789062 21.097657 7.5 0 15.003906-1.101563 22.316406-3.273438 17.464844-5.203125 34.523438-12.300781 50.707032-21.09375 14.871094-8.097656 26.792968-21.183593 33.574218-36.84375 3.957032-9.132812 6.070313-18.929687 6.296876-28.742187 27.390624-.535156 52.425781-15.71875 65.617187-39.910156 8.789063-16.171876 15.882813-33.226563 21.085937-50.695313 5.925782-19.921875 3.78125-40.855469-6.035156-58.941406zm-93.804687-150.851563c3.789062-.992187 7.703125-1.496094 11.632812-1.496094 16.984375 0 32.601563 9.296876 40.75 24.242188 7.796875 14.347656 14.085938 29.464844 18.695313 44.929688 3.636718 12.226562 2.339844 25.035156-3.648438 36.070312-4.039062 7.441406-9.941406 13.582031-17.070312 17.769531l-8.269532 4.855469c-1.953124-47.695312-21.109374-91.023438-51.421874-123.933594zm-317.832031 134.457032c0-91.007813 74.039062-165.046876 165.046874-165.046876 91.007813 0 165.046876 74.039063 165.046876 165.046876 0 91.003906-74.039063 165.046874-165.046876 165.046874-91.007812 0-165.046874-74.039062-165.046874-165.046874zm218.074218-225.890626c4.601563 0 9.230469.683594 13.746094 2.023438 15.472656 4.613281 30.589844 10.902344 44.921875 18.6875 18.519531 10.089844 28.101563 32.125 22.78125 52.394531l-2.449219 9.339844c-32.910156-30.3125-76.234375-49.472656-123.925781-51.429687l4.820313-8.175782c8.3125-14.085937 23.679687-22.839844 40.105468-22.839844zm-164.734375 20.71875c14.34375-7.792968 29.460938-14.082031 44.925781-18.6875 4.523438-1.347656 9.152344-2.03125 13.753907-2.03125 16.425781 0 31.792969 8.753907 40.101562 22.839844l4.824219 8.175782c-47.695312 1.960937-91.023438 21.117187-123.929688 51.4375l-2.449218-9.34375c-5.3125-20.277344 4.273437-42.3125 22.773437-52.390626zm-112.542969 139.769532c4.746094-16.273438 11.246094-32.007813 19.316407-46.757813 6.957031-12.683593 19.636719-21.480469 33.867187-23.53125 6.101563-.855469 12.128906-.445312 18.128906 1.1875l9.410157 2.5625c-30.246094 32.878907-49.367188 76.140625-51.34375 123.757813l-8.507813-4.851563c-5.316406-3.03125-9.851562-7.023437-13.488281-11.871093-8.648437-11.523438-11.40625-26.664063-7.382813-40.496094zm70.90625 200.019531c-5.882812 1.546875-11.863281 1.902344-17.648437 1.0625-14.300781-2.042969-26.976563-10.824219-33.90625-23.484375-8.128906-14.847656-14.644531-30.589844-19.363281-46.765625-4.023438-13.859375-1.269532-29.003906 7.363281-40.511719 3.640625-4.847656 8.1875-8.847656 13.511719-11.882812l8.515625-4.851563c1.976562 47.652344 21.125 90.941407 51.414062 123.832031zm128.4375 82.269531c-7.925781 5.9375-17.742187 9.207032-27.636718 9.207032-4.351563 0-8.691406-.617188-12.867188-1.828126-16.605468-4.84375-32.726562-11.570312-47.90625-19.984374-12.371094-6.878907-20.933594-19.347657-22.902344-33.332032-.835937-5.996094-.445312-12 1.160157-17.84375l2.730469-9.941406c32.925781 30.453125 76.339843 49.722656 124.140624 51.707031l-4.808593 8.449219c-3.046875 5.359375-7.058594 9.925781-11.910157 13.566406zm136.613282-11.71875c-14.34375 7.792969-29.460938 14.085938-44.925782 18.691406-4.527343 1.34375-9.152343 2.027344-13.753906 2.027344-16.402344 0-31.753906-8.730468-40.066406-22.785156l-4.867188-8.226562c47.695313-1.960938 91.023438-21.117188 123.933594-51.429688l2.449219 9.335938c5.320313 20.269531-4.261719 42.304687-22.769531 52.386718zm112.15625-138.394531c-4.609375 15.46875-10.898438 30.585937-18.683594 44.914063-8.160156 14.964843-23.777344 24.261718-40.761719 24.261718-3.929687 0-7.84375-.503906-11.632812-1.492187l-9.332031-2.441407c30.3125-32.910156 49.464843-76.238281 51.421874-123.929687l8.265626 4.851563c7.132812 4.1875 13.035156 10.332031 17.074218 17.773437 5.988282 11.03125 7.285156 23.839844 3.648438 36.0625zm0 0"/><path d="m256.570312 120.859375c-74.460937 0-135.039062 60.578125-135.039062 135.039063 0 74.457031 60.578125 135.035156 135.039062 135.035156 74.460938 0 135.039063-60.578125 135.039063-135.035156 0-74.460938-60.578125-135.039063-135.039063-135.039063zm0 240.066406c-57.914062 0-105.03125-47.117187-105.03125-105.027343 0-57.914063 47.117188-105.03125 105.03125-105.03125 57.914063 0 105.03125 47.117187 105.03125 105.03125 0 57.910156-47.117187 105.027343-105.03125 105.027343zm0 0"/><path d="m205.554688 312.914062-18.003907-24.007812 120.035157-90.023438 18.003906 24.003907zm0 0"/><path d="m196.554688 195.878906h30.007812v30.007813h-30.007812zm0 0"/><path d="m286.578125 285.90625h30.007813v30.007812h-30.007813zm0 0"/></svg>