<svg height="512pt" viewBox="0 0 512 512" width="512pt" xmlns="http://www.w3.org/2000/svg"><path d="m398.8125 302c13.910156-28.515625 21.1875-59.894531 21.1875-92 0-115.792969-94.207031-210-210-210s-210 94.207031-210 210c0 105.648438 78.402344 194.324219 182 208.132812v93.867188h330v-210zm83.1875 60h-270v-30h270zm-94.515625-182h-57.484375v30h60c0 32.558594-8.71875 64.238281-25.257812 92h-34.742188v-17c0-24.8125-20.1875-45-45-45h-150c-8.269531 0-15-6.730469-15-15s6.730469-15 15-15h120c24.8125 0 45-20.1875 45-45s-20.1875-45-45-45h-30c-8.269531 0-15-6.730469-15-15s6.730469-15 15-15h60c15.578125 0 29.453125-8.128906 37.550781-20.359375 33.683594 27.0625 57.457031 65.976563 64.933594 110.359375zm-311.308594 150h73.824219v-30h-95.652344c-15.484375-26.609375-24.347656-57.40625-24.347656-90 0-21.03125 3.636719-41.222656 10.296875-60h109.703125v-30h-95.835938c31.167969-53.761719 89.347657-90 155.835938-90 31.832031 0 61.753906 8.316406 87.722656 22.871094-2.664062 4.265625-7.386718 7.128906-12.722656 7.128906h-60c-24.8125 0-45 20.1875-45 45s20.1875 45 45 45h30c8.269531 0 15 6.730469 15 15s-6.730469 15-15 15h-120c-24.8125 0-45 20.1875-45 45s20.1875 45 45 45h150c8.269531 0 15 6.730469 15 15v17h-118v85.820312c-41.828125-6.566406-78.808594-27.6875-105.824219-57.820312zm135.824219 152v-90h270v90zm0 0"/><path d="m362 422h90v30h-90zm0 0"/></svg>