<svg height="512pt" viewBox="0 0 512 511" width="512pt" xmlns="http://www.w3.org/2000/svg"><path d="m421 141.855469v-79.394531h-90.980469l-74.019531-61.960938-74.019531 61.960938h-90.980469v79.394531l-91 78.75v291.855469h512v-291.855469zm-261 212.421875-130 111.429687v-208.351562zm71.550781-21.816406h48.898438l175 150h-398.898438zm120.449219 21.816406 130-96.921875v208.347656zm121.070312-127.683594-52.070312 38.820312v-83.886718zm-217.070312-186.96875 27.28125 22.835938h-54.5625zm135 52.835938v195.320312l-62.347656 46.484375-37.101563-31.804687h-71.101562l-37.101563 31.804687-62.347656-46.484375v-195.320312zm-300 172.953124-52.070312-38.824218 52.070312-45.058594zm0 0"/><path d="m151 122.460938h210v30h-210zm0 0"/><path d="m271 182.460938h90v30h-90zm0 0"/><path d="m151 182.460938h90v30h-90zm0 0"/><path d="m151 242.460938h90v30h-90zm0 0"/><path d="m271 242.460938h90v30h-90zm0 0"/></svg>