<svg height="512pt" viewBox="0 -31 512 512" width="512pt" xmlns="http://www.w3.org/2000/svg"><path d="m240 120c0-66.167969-53.832031-120-120-120s-120 53.832031-120 120c0 45.144531 25.0625 84.539062 62 105.019531v224.980469h450v-330zm-210 0c0-49.625 40.375-90 90-90s90 40.375 90 90-40.375 90-90 90-90-40.375-90-90zm452 300h-390v-183.304688c8.988281 2.15625 18.359375 3.304688 28 3.304688 55.8125 0 102.847656-38.300781 116.203125-90h245.796875zm0 0"/><path d="m452 180h-150v90h150zm-120 30h30v30h-30zm90 30h-30v-30h30zm0 0"/><path d="m122 300h60v30h-60zm0 0"/><path d="m212 300h60v30h-60zm0 0"/><path d="m302 300h60v30h-60zm0 0"/><path d="m392 300h60v30h-60zm0 0"/><path d="m122 360h330v30h-330zm0 0"/><path d="m154.394531 79.394531-49.394531 49.390625-19.394531-19.390625-21.210938 21.210938 40.605469 40.609375 70.605469-70.609375zm0 0"/></svg>