<svg height="512pt" viewBox="-31 0 512 512" width="512pt" xmlns="http://www.w3.org/2000/svg"><path d="m342.371094 302h107.628906v-302h-450v302h137.628906l42.351563 48-37.488281 42.484375c-29.550782 3.710937-52.492188 28.976563-52.492188 59.515625 0 33.085938 26.914062 60 60 60 33.078125 0 59.988281-26.90625 60-59.980469l30-34 30 34.003907c.011719 33.074218 26.921875 59.976562 60 59.976562 33.085938 0 60-26.914062 60-60 0-30.539062-22.941406-55.804688-52.492188-59.515625l-37.488281-42.484375zm-165.203125 96.53125c42.34375-47.980469 132.382812-150.03125 174.972656-198.296875 3.230469 5.792969 5.152344 12.285156 5.578125 19.101563.75 12-3.214844 23.570312-11.167969 32.585937l-146.878906 166.460937c-5.683594-8.371093-13.433594-15.226562-22.503906-19.851562zm-147.167969-368.53125h210v32h30v-32h150v242h-51.15625l.203125-.230469c13.253906-15.023437 19.863281-34.308593 18.613281-54.304687s-10.214844-38.308594-25.238281-51.5625l-11.246094-9.921875-81.175781 92v-35.980469h-30v60h-210zm147.636719 272h44.699219l-22.351563 25.328125zm-27.636719 180c-16.542969 0-30-13.457031-30-30s13.457031-30 30-30 30 13.457031 30 30-13.457031 30-30 30zm210-30c0 16.542969-13.457031 30-30 30s-30-13.457031-30-30 13.457031-30 30-30 30 13.457031 30 30zm-57.167969-53.46875c-9.070312 4.625-16.820312 11.480469-22.503906 19.851562l-20.324219-23.035156 20.011719-22.675781zm0 0"/><path d="m240 92h30v30h-30zm0 0"/><path d="m240 152h30v30h-30zm0 0"/><path d="m135 107c8.269531 0 15 6.730469 15 15h30c0-19.554688-12.539062-36.226562-30-42.421875v-31.578125h-30v31.578125c-17.460938 6.195313-30 22.867187-30 42.421875 0 24.8125 20.1875 45 45 45 8.269531 0 15 6.730469 15 15s-6.730469 15-15 15-15-6.730469-15-15h-30c0 19.554688 12.539062 36.226562 30 42.421875v31.378906h30v-31.378906c17.460938-6.195313 30-22.867187 30-42.421875 0-24.8125-20.1875-45-45-45-8.269531 0-15-6.730469-15-15s6.730469-15 15-15zm0 0"/></svg>