<svg height="512pt" viewBox="0 -61 512 512" width="512pt" xmlns="http://www.w3.org/2000/svg"><path d="m0 0v390h512v-390zm482 150h-219.070312c5.121093-8.832031 8.070312-19.074219 8.070312-30 0-33.085938-26.914062-60-60-60-10.925781 0-21.167969 2.949219-30 8.070312v-38.070312h301zm-391-30c0-16.542969 13.457031-30 30-30s30 13.457031 30 30v30h-30c-16.542969 0-30-13.457031-30-30zm90 30v-30c0-16.542969 13.457031-30 30-30s30 13.457031 30 30-13.457031 30-30 30zm-30-120v38.070312c-8.832031-5.121093-19.074219-8.070312-30-8.070312-33.085938 0-60 26.914062-60 60 0 10.925781 2.949219 21.167969 8.070312 30h-39.070312v-120zm-121 150h92.207031c-4.71875 5.308594-8.988281 11.035156-12.757812 17.132812-12.070313 19.53125-18.449219 41.988282-18.449219 64.949219v7.917969c0 16.542969-13.457031 30-30 30v30c33.085938 0 60-26.914062 60-60v-7.917969c0-26.660156 11.078125-51.304687 30-68.710937v166.628906h-121zm151 180v-166.628906c18.921875 17.40625 30 42.050781 30 68.710937v7.917969c0 33.085938 26.914062 60 60 60v-30c-16.542969 0-30-13.457031-30-30v-7.917969c0-22.960937-6.378906-45.417969-18.449219-64.949219-3.769531-6.097656-8.039062-11.824218-12.757812-17.132812h272.207031v180zm0 0"/><path d="m301 240h150v30h-150zm0 0"/><path d="m301 300h30v30h-30zm0 0"/><path d="m361 300h30v30h-30zm0 0"/><path d="m421 300h30v30h-30zm0 0"/></svg>