<svg height="512pt" viewBox="-91 0 512 512" width="512pt" xmlns="http://www.w3.org/2000/svg"><path d="m180 0v15c0 8.269531-6.730469 15-15 15s-15-6.730469-15-15v-15h-150v512h150v-15c0-8.269531 6.730469-15 15-15s15 6.730469 15 15v15h150v-512zm-57.429688 30c6.191407 17.460938 22.875 30 42.429688 30s36.238281-12.539062 42.429688-30h92.570312v362h-270v-362zm84.859376 452c-6.191407-17.460938-22.875-30-42.429688-30s-36.238281 12.539062-42.429688 30h-92.570312v-60h270v60zm0 0"/><path d="m270 90h-210v272h210zm-180 30h60v33.578125c-17.460938 6.195313-30 22.867187-30 42.421875 0 24.8125 20.1875 45 45 45 8.269531 0 15 6.730469 15 15s-6.730469 15-15 15-15-6.730469-15-15h-30c0 19.554688 12.539062 36.226562 30 42.421875v33.578125h-60zm150 212h-60v-33.578125c17.460938-6.195313 30-22.867187 30-42.421875 0-24.8125-20.1875-45-45-45-8.269531 0-15-6.730469-15-15s6.730469-15 15-15 15 6.730469 15 15h30c0-19.554688-12.539062-36.226562-30-42.421875v-33.578125h60zm0 0"/></svg>