<svg height="512pt" viewBox="0 0 512 512" width="512pt" xmlns="http://www.w3.org/2000/svg"><path d="m512 255.789062-91.027344-98.125v53.171876h-37.683594c-13.566406-38.257813-43.9375-68.628907-82.195312-82.195313v-37.683594h53.203125l-98.15625-90.957031-98.15625 90.957031h53.203125v37.683594c-38.261719 13.566406-68.628906 43.9375-82.195312 82.195313h-37.683594v-53.050782l-91.308594 98.003906 91.308594 98.007813v-53.054687h37.683594c13.566406 38.261718 43.9375 68.628906 82.195312 82.195312v37.683594h-53.203125l98.15625 90.957031 98.15625-90.957031h-53.203125v-37.683594c38.261719-13.566406 68.628906-43.933594 82.195312-82.195312h37.683594v53.171874zm-277.582031-194.800781 21.722656-20.128906 21.722656 20.128906h-6.738281v60.777344c-4.921875-.546875-9.917969-.839844-14.984375-.839844s-10.0625.292969-14.984375.839844v-60.777344zm-173.078125 209.785157v6.890624l-20.378906-21.875 20.375-21.871093v6.886719h60.777343c-.546875 4.921874-.835937 9.921874-.835937 14.984374 0 5.066407.289062 10.0625.835937 14.984376zm89.90625-14.984376c0-52.75 39.144531-96.523437 89.910156-103.816406v31.46875c-17.441406 6.1875-29.96875 22.84375-29.96875 42.378906 0 24.789063 20.164062 44.953126 44.953125 44.953126 8.261719 0 14.984375 6.722656 14.984375 14.984374 0 8.265626-6.722656 14.984376-14.984375 14.984376s-14.984375-6.71875-14.984375-14.984376h-29.96875c0 19.535157 12.527344 36.191407 29.96875 42.378907v31.472656c-50.765625-7.292969-89.910156-51.066406-89.910156-103.820313zm126.617187 194.800782-21.722656 20.132812-21.722656-20.132812h6.738281v-60.773438c4.921875.546875 9.917969.835938 14.984375.835938s10.0625-.289063 14.984375-.835938v60.773438zm-6.738281-90.980469v-31.472656c17.441406-6.1875 29.96875-22.84375 29.96875-42.378907 0-24.785156-20.164062-44.953124-44.953125-44.953124-8.261719 0-14.984375-6.722657-14.984375-14.984376 0-8.261718 6.722656-14.984374 14.984375-14.984374s14.984375 6.722656 14.984375 14.984374h29.96875c0-19.535156-12.527344-36.191406-29.96875-42.378906v-31.46875c50.765625 7.292969 89.910156 51.066406 89.910156 103.816406 0 52.753907-39.144531 96.527344-89.910156 103.820313zm119.039062-88.835937c.546876-4.921876.839844-9.917969.839844-14.984376 0-5.0625-.292968-10.0625-.839844-14.984374h60.777344v-6.769532l20.179688 21.753906-20.179688 21.753907v-6.769531zm0 0"/></svg>