<svg height="512pt" viewBox="-47 0 512 512" width="512pt" xmlns="http://www.w3.org/2000/svg"><path d="m383.523438 392.050781-24.929688-86.09375-63.464844-95.195312-55.242187-27.621094v-61.199219h-14.996094c-8.265625 0-14.992187-6.726562-14.992187-14.992187s6.726562-14.992188 14.992187-14.992188h14.996094v-91.957031h-239.886719v91.957031h14.992188c8.269531 0 14.992187 6.726563 14.992187 14.992188s-6.722656 14.992187-14.992187 14.992187h-14.992188v239.886719h59.972656v59.96875h149.925782v-2.207031c5.367187 12.496094 13.117187 23.980468 22.730468 33.59375 19.773438 19.773437 45.90625 30.871094 73.789063 31.382812l27.429687 27.433594 84.8125-84.8125zm-353.539063-242.691406c17.453125-6.1875 29.984375-22.863281 29.984375-42.410156s-12.53125-36.222657-29.984375-42.410157v-34.554687h179.914063v34.554687c-17.453126 6.1875-29.984376 22.863282-29.984376 42.410157s12.53125 36.222656 29.984376 42.410156v111.472656l-33.253907-33.253906-10.601562 10.601563c-25.398438 25.398437-28.710938 64.636718-9.96875 93.660156h-126.089844zm89.957031 242.453125h-29.984375v-29.984375h29.984375zm29.984375 0c0-10.488281 0-19.5 0-29.984375h29.988281v29.984375zm183.921875 77.78125-14.992187-14.992188h-10.414063c-20.628906 0-40.023437-8.035156-54.609375-22.621093-8.433593-8.433594-14.886719-18.875-18.660156-30.1875l-15.4375-46.3125-32.488281-32.488281c-13.820313-13.824219-16.75-34.476563-8.785156-51.191407l49.851562 49.847657c14.496094 14.5 32.507812 25.390624 52.085938 31.5l8.929687-28.625c-14.964844-4.667969-28.730469-12.996094-39.816406-24.078126l-9.628907-9.628906v-74.148437l34.714844 17.355469 56.480469 84.71875 25.789063 89.058593 19.390624 19.386719zm0 0"/><path d="m164.921875 196.90625c0-24.800781-20.179687-44.980469-44.980469-44.980469-24.800781 0-44.976562 20.179688-44.976562 44.980469s20.175781 44.976562 44.976562 44.976562c24.800782 0 44.980469-20.175781 44.980469-44.976562zm-44.980469 14.992188c-8.265625 0-14.992187-6.726563-14.992187-14.992188s6.726562-14.992188 14.992187-14.992188 14.992188 6.726563 14.992188 14.992188-6.722656 14.992188-14.992188 14.992188zm0 0"/></svg>