<svg height="512pt" viewBox="0 0 512 512" width="512pt" xmlns="http://www.w3.org/2000/svg"><path d="m182.5 512h298.5v-267.894531l31-3.859375v-150.246094h-181v-90l-150 .00390625v89.99609375h-181v150.25l31 3.859375v267.890625zm208.5-392h30v30h-30zm-180-90h90v60h-90zm-120 90h30v30h-30zm-30 332h30v-30h-30v-90h30v-30h-30v-54.15625l180 22.40625v34.332031c-17.460938 6.191407-30 22.863281-30 42.417969 0 24.8125 20.1875 45 45 45 8.269531 0 15 6.730469 15 15 0 8.273438-6.730469 15-15 15s-15-6.726562-15-15h-30c0 19.554688 12.539062 36.230469 30 42.421875v32.578125h-180zm390-150h-30v30h30v90h-30v30h30v30h-180v-32.578125c17.460938-6.195313 30-22.867187 30-42.421875 0-24.8125-20.1875-45-45-45-8.269531 0-15-6.730469-15-15s6.730469-15 15-15 15 6.730469 15 15h30c0-19.554688-12.539062-36.226562-30-42.421875v-34.332031l180-22.40625zm31-88.25-226 28.132812-226-28.132812v-93.75h31v60h90v-60h210v60h90v-60h31zm0 0"/></svg>