<svg height="512pt" viewBox="-61 0 512 512.00001" width="512pt" xmlns="http://www.w3.org/2000/svg"><path d="m344.847656 269.867188-74.972656-107.652344v-50.808594l72.65625-111.40625h-102.644531c-17.890625 0-33.980469 7.878906-44.976563 20.34375-11-12.464844-27.085937-20.34375-44.980468-20.34375h-102.640626l72.65625 111.40625v50.808594l-74.972656 107.652344c-28.582031 41.035156-44.972656 90.949218-44.972656 136.945312 0 33.375 8.382812 57.914062 25.628906 75.027344 31.179688 30.9375 84.207032 30.519531 145.605469 30.046875 35.132813-.277344 49.988281.117187 69.367187.113281 51.960938 0 96.203126-2.988281 123.589844-30.160156 17.246094-17.113282 25.628906-41.652344 25.628906-75.027344 0-45.996094-16.394531-95.910156-44.972656-136.945312zm-194.917968-147.925782h89.957031v29.988282h-89.957031zm0-91.957031c16.535156 0 29.988281 13.453125 29.988281 29.988281h29.984375c0-16.535156 13.453125-29.988281 29.984375-29.988281h47.289062l-40.414062 61.972656h-103.703125l-40.417969-61.972656zm193.140624 430.566406c-22.316406 22.144531-69.558593 21.777344-124.253906 21.347657-21.054687-.164063-26.785156-.164063-47.816406 0-54.699219.429687-101.9375.796874-124.253906-21.347657-11.277344-11.191406-16.761719-28.769531-16.761719-53.738281 0-40.015625 14.433594-83.683594 39.59375-119.808594l73.1875-105.089844h104.285156l73.191407 105.089844c25.160156 36.125 39.589843 79.792969 39.589843 119.808594 0 24.96875-5.480469 42.546875-16.761719 53.738281zm0 0"/><path d="m194.910156 301.859375c8.265625 0 14.992188 6.726563 14.992188 14.992187h29.984375c0-19.542968-12.535157-36.210937-29.984375-42.398437v-31.566406h-29.984375v31.566406c-17.453125 6.1875-29.988281 22.855469-29.988281 42.398437 0 24.800782 20.179687 44.980469 44.980468 44.980469 8.265625 0 14.992188 6.726563 14.992188 14.992188 0 8.269531-6.726563 14.992187-14.992188 14.992187-8.269531 0-14.992187-6.722656-14.992187-14.992187h-29.988281c0 19.546875 12.535156 36.210937 29.988281 42.402343v31.363282h29.984375v-31.363282c17.449218-6.191406 29.984375-22.855468 29.984375-42.402343 0-24.800781-20.175781-44.976563-44.976563-44.976563-8.269531 0-14.992187-6.726562-14.992187-14.996094 0-8.265624 6.722656-14.992187 14.992187-14.992187zm0 0"/></svg>