<svg height="512pt" viewBox="0 0 512 511" width="512pt" xmlns="http://www.w3.org/2000/svg"><path d="m450.96875 212.441406h61.03125l-61.03125-50.527344v-129.445312h-89.984375v54.945312l-104.984375-86.914062-256 211.941406h61.03125v269.957032h-60.9921875v29.996093h511.9218755v-29.996093h-60.992188zm-59.988281-149.976562h29.992187v74.617187l-29.992187-24.832031zm-134.980469-23.023438 172.734375 143.003906h-7.761719v239.960938h-329.945312v-239.960938h-7.761719zm-164.972656 412.960938h329.945312v29.996094h-329.945312zm0 0"/><path d="m256 392.414062c74.425781 0 134.980469-60.554687 134.980469-134.980468 0-74.425782-60.554688-134.980469-134.980469-134.980469s-134.980469 60.554687-134.980469 134.980469c0 74.425781 60.554688 134.980468 134.980469 134.980468zm104.984375-134.980468c0 52.796875-39.179687 96.609375-89.988281 103.90625v-31.496094c17.457031-6.191406 29.996094-22.863281 29.996094-42.414062 0-24.808594-20.183594-44.992188-44.992188-44.992188-8.269531 0-14.996094-6.730469-14.996094-15s6.726563-14.996094 14.996094-14.996094 14.996094 6.726563 14.996094 14.996094h29.996094c0-19.550781-12.539063-36.222656-29.996094-42.414062v-31.496094c50.808594 7.296875 89.988281 51.109375 89.988281 103.90625zm-119.980469-103.90625v31.496094c-17.457031 6.191406-29.996094 22.863281-29.996094 42.414062 0 24.808594 20.183594 44.992188 44.992188 44.992188 8.269531 0 14.996094 6.730468 14.996094 15 0 8.269531-6.726563 14.996093-14.996094 14.996093s-14.996094-6.726562-14.996094-14.996093h-29.996094c0 19.550781 12.539063 36.222656 29.996094 42.414062v31.496094c-50.808594-7.296875-89.988281-51.109375-89.988281-103.90625s39.179687-96.609375 89.988281-103.90625zm0 0"/></svg>