<svg height="512pt" viewBox="0 0 512 512" width="512pt" xmlns="http://www.w3.org/2000/svg"><path d="m512 0h-512v450h60v62h84.40625l30-62h163.1875l30 62h84.40625v-62h60zm-30 30v90h-30v-60h-392v60h-30v-90zm-422 120v30h-30v-30zm0 60v30h-30v-30zm0 60v30h-30v-30zm30 60v-240h332v30h-45c-57.898438 0-105 47.101562-105 105s47.101562 105 105 105h45v30h-332zm287-30c-41.355469 0-75-33.644531-75-75s33.644531-75 75-75h105v150zm-251.40625 182h-35.59375v-32h51.078125zm296.40625 0h-35.59375l-15.484375-32h51.078125zm-392-62v-90h30v60h392v-60h30v90zm0 0"/><path d="m377 180c-24.8125 0-45 20.1875-45 45s20.1875 45 45 45 45-20.1875 45-45-20.1875-45-45-45zm0 60c-8.269531 0-15-6.730469-15-15s6.730469-15 15-15 15 6.730469 15 15-6.730469 15-15 15zm0 0"/></svg>