<svg height="512pt" viewBox="-31 0 512 512" width="512pt" xmlns="http://www.w3.org/2000/svg"><path d="m210 120h30v30h-30zm0 0"/><path d="m450 420v-330h-90v-90h-270v90h-90v330h174.332031l-20.21875 62h-64.113281v30h270v-30h-64.113281l-20.21875-62zm-151.507812-180c-6.96875-34.191406-37.273438-60-73.492188-60s-66.523438 25.808594-73.492188 60h-31.507812v-151.507812c29.34375-5.980469 52.511719-29.148438 58.492188-58.492188h93.019531c5.976562 29.34375 29.144531 52.511719 58.488281 58.492188v151.507812zm-31.070313 0h-84.84375c6.195313-17.457031 22.867187-30 42.421875-30s36.226562 12.542969 42.421875 30zm62.578125-182.578125c-12.765625-4.527344-22.894531-14.65625-27.421875-27.421875h27.421875zm-182.578125-27.421875c-4.527344 12.765625-14.65625 22.894531-27.421875 27.421875v-27.421875zm-57.421875 90v120h-30v30h330v-30h-30v-120h60v210h-390v-210zm-60 240h390v30h-390zm234.332031 122h-78.664062l20.21875-62h38.226562zm0 0"/></svg>