<svg height="512pt" viewBox="0 0 512.00028 512" width="512pt" xmlns="http://www.w3.org/2000/svg"><path d="m508.679688 397.714844-41.085938-146.972656c-6.316406-22.597657-10.785156-46.542969-13.277344-70.804688 32.011719-1.226562 57.675782-27.636719 57.675782-59.941406 0-33.082032-26.914063-59.996094-59.996094-59.996094h-123.578125c1.664062-4.695312 2.582031-9.742188 2.582031-15 0-24.8125-20.1875-45-45-45-11.515625 0-22.03125 4.355469-30 11.496094-7.96875-7.140625-18.480469-11.496094-30-11.496094-24.8125 0-44.996094 20.1875-44.996094 45 0 5.257812.914063 10.304688 2.578125 15h-123.578125c-33.082031 0-59.9960935 26.914062-59.9960935 59.996094 0 32.304687 25.6640625 58.714844 57.6757815 59.941406-2.492188 24.261719-6.960938 48.207031-13.277344 70.804688l-41.082031 146.972656c-3.4375 12.277344-4.210938 25.035156-2.308594 37.917968 6.433594 43.527344 46.203125 76.355469 92.515625 76.355469h324.9375c46.308594 0 86.082031-32.828125 92.515625-76.355469 1.90625-12.882812 1.128906-25.636718-2.304687-37.917968zm-222.679688-367.714844c8.269531 0 15 6.726562 15 15 0 8.269531-6.730469 15-15 15s-15-6.730469-15-15c0-8.273438 6.730469-15 15-15zm-75 15c0-8.273438 6.730469-15 15-15 8.273438 0 15 6.726562 15 15 0 8.269531-6.726562 15-15 15-8.269531 0-15-6.730469-15-15zm-180.992188 74.996094c0-16.539063 13.457032-30 29.996094-30h391.992188c16.539062 0 30 13.460937 30 30 0 16.453125-13.316406 29.851562-29.738282 29.992187-.390624-11.359375-.21875-17.832031-.261718-29.992187h-391.992188c-.042968 12.191406.132813 18.632812-.261718 29.992187-16.421876-.140625-29.734376-13.539062-29.734376-29.992187zm451.300782 311.25c-4.273438 28.929687-31.289063 50.742187-62.835938 50.742187h-324.941406c-31.550781 0-58.5625-21.8125-62.839844-50.742187-1.285156-8.6875-.769531-17.25 1.523438-25.453125l41.085937-146.976563c9.625-34.441406 15.253907-71.773437 16.457031-108.820312h332.484376c1.203124 37.046875 6.832031 74.375 16.460937 108.820312l41.085937 146.976563c2.292969 8.199219 2.804688 16.765625 1.519532 25.453125zm0 0"/><path d="m256 181.996094c-74.4375 0-134.996094 60.558594-134.996094 134.996094s60.558594 134.996093 134.996094 134.996093 134.996094-60.558593 134.996094-134.996093-60.558594-134.996094-134.996094-134.996094zm-104.996094 134.996094c0-52.804688 39.179688-96.621094 89.996094-103.921876v31.503907c-17.457031 6.191406-30 22.863281-30 42.417969 0 24.8125 20.1875 45 45 45 8.269531 0 15 6.726562 15 15 0 8.269531-6.730469 15-15 15s-15-6.730469-15-15h-30c0 19.554687 12.542969 36.226562 30 42.417968v31.503906c-50.816406-7.300781-89.996094-51.117187-89.996094-103.921874zm119.996094 103.921874v-31.503906c17.457031-6.191406 30-22.863281 30-42.417968 0-24.8125-20.1875-45-45-45-8.269531 0-15-6.730469-15-15 0-8.269532 6.730469-15 15-15s15 6.730468 15 15h30c0-19.554688-12.542969-36.226563-30-42.417969v-31.503907c50.816406 7.300782 89.996094 51.117188 89.996094 103.921876 0 52.804687-39.179688 96.621093-89.996094 103.921874zm0 0"/></svg>