<svg height="512pt" viewBox="-16 0 512 512" width="512pt" xmlns="http://www.w3.org/2000/svg"><path d="m240.375 136.621094c-74.441406 0-135.003906 60.5625-135.003906 135.003906s60.5625 135.003906 135.003906 135.003906 135.003906-60.5625 135.003906-135.003906-60.5625-135.003906-135.003906-135.003906zm-105.003906 135.003906c0-52.804688 39.1875-96.625 90.003906-103.925781v31.886719c-17.460938 6.191406-30 22.863281-30 42.421874 0 24.8125 20.1875 45 45 45 8.269531 0 15 6.726563 15 15 0 8.269532-6.730469 15-15 15s-15-6.730468-15-15h-30c0 19.554688 12.539062 36.226563 30 42.421876v31.125c-50.816406-7.304688-90.003906-51.125-90.003906-103.929688zm120.003906 103.925781v-31.125c17.460938-6.191406 30-22.863281 30-42.417969 0-24.816406-20.1875-45.003906-45-45.003906-8.269531 0-15-6.726562-15-15 0-8.269531 6.730469-15 15-15s15 6.730469 15 15h30c0-19.554687-12.539062-36.226562-30-42.417968v-31.886719c50.816406 7.300781 90.003906 51.121093 90.003906 103.925781s-39.1875 96.625-90.003906 103.925781zm0 0"/><path d="m480.75 271.625c0-115.925781-83.625-215.425781-196.441406-236.339844-4.457032-20.15625-22.457032-35.285156-43.933594-35.285156s-39.476562 15.128906-43.933594 35.285156c-112.816406 20.914063-196.441406 120.414063-196.441406 236.339844 0 27.644531 4.644531 54.632812 13.824219 80.390625-14.152344 14.039063-17.707031 36.390625-7.28125 54.449219 10.515625 18.214844 31.714843 26.207031 50.894531 20.902344 44.457031 52.074218 110.035156 84.632812 182.9375 84.632812 72.847656 0 138.445312-32.519531 182.9375-84.632812 18.832031 5.207031 40.210938-2.398438 50.894531-20.902344 10.421875-18.058594 6.867188-40.40625-7.28125-54.449219 9.175781-25.757813 13.824219-52.746094 13.824219-80.390625zm-240.375-241.625c8.269531 0 15 6.730469 15 15 0 8.273438-6.730469 15-15 15s-15-6.726562-15-15c0-8.269531 6.730469-15 15-15zm-207.851562 361.464844c-4.136719-7.164063-1.671876-16.355469 5.492187-20.492188 7.160156-4.136718 16.355469-1.671875 20.488281 5.492188 4.136719 7.164062 1.671875 16.355468-5.488281 20.492187-7.179687 4.144531-16.347656 1.6875-20.492187-5.492187zm207.851562 89.796875c-61.0625 0-117.875-26.007813-157.800781-71.78125 9.507812-13.855469 10.859375-32.519531 1.914062-48.019531-8.957031-15.511719-25.820312-23.671876-42.59375-22.34375-7.398437-21.664063-11.15625-44.308594-11.15625-67.492188 0-100.574219 72.160157-186.960938 169.753907-205.816406 7.523437 14.363281 22.574218 24.191406 39.882812 24.191406s32.359375-9.828125 39.882812-24.191406c97.59375 18.855468 169.753907 105.242187 169.753907 205.816406 0 23.183594-3.757813 45.828125-11.15625 67.492188-16.773438-1.328126-33.636719 6.832031-42.59375 22.34375-8.949219 15.5-7.59375 34.164062 1.914062 48.019531-39.925781 45.773437-96.738281 71.78125-157.800781 71.78125zm207.851562-89.796875c-4.148437 7.179687-13.3125 9.636718-20.492187 5.492187-7.164063-4.136719-9.625-13.328125-5.492187-20.492187 4.136718-7.164063 13.332031-9.628906 20.492187-5.492188 7.164063 4.136719 9.625 13.328125 5.492187 20.492188zm0 0"/></svg>