<svg height="512pt" viewBox="0 0 512 512" width="512pt" xmlns="http://www.w3.org/2000/svg"><path d="m271 0h-211c-33.085938 0-60 26.914062-60 60 0 6.851562 1.148438 13.582031 3.417969 20l3.535156 10h23.046875v422h301v-452c0-33.085938-26.914062-60-60-60zm-211 30h159.050781c-5.117187 8.828125-8.050781 19.078125-8.050781 30h-181c0-16.542969 13.457031-30 30-30zm241 452h-241v-392h189.769531l-7.066406-20c-1.128906-3.195312-1.703125-6.5625-1.703125-10 0-16.542969 13.457031-30 30-30s30 13.457031 30 30zm0 0"/><path d="m482 122v30h-31v-60h-90v245.917969c0 38.351562 11.246094 75.492187 32.519531 107.402343l12.480469 18.722657 12.480469-18.722657c21.273437-31.910156 32.519531-69.050781 32.519531-107.402343v-155.917969h31v60h30v-120zm-61 0v30h-30v-30zm-15 284.390625c-9.863281-21.371094-15-44.648437-15-68.472656v-95.917969h30v95.917969c0 23.824219-5.136719 47.101562-15 68.472656zm15-194.390625h-30v-30h30zm0 0"/><path d="m181 272c-8.269531 0-15-6.730469-15-15h-30c0 19.554688 12.539062 36.226562 30 42.421875v31.378906h30v-31.378906c17.460938-6.195313 30-22.867187 30-42.421875 0-24.8125-20.1875-45-45-45-8.269531 0-15-6.730469-15-15s6.730469-15 15-15 15 6.730469 15 15h30c0-19.554688-12.539062-36.226562-30-42.421875v-31.578125h-30v31.578125c-17.460938 6.195313-30 22.867187-30 42.421875 0 24.8125 20.1875 45 45 45 8.269531 0 15 6.730469 15 15s-6.730469 15-15 15zm0 0"/><path d="m91 362h180v30h-180zm0 0"/><path d="m121 422h120v30h-120zm0 0"/></svg>