<svg height="511pt" viewBox="-30 0 511 511.998" width="511pt" xmlns="http://www.w3.org/2000/svg"><path d="m450.753906 229.898438-48.71875-51.105469 19.824219-61.628907-67.9375-21.558593-13.1875-62.125-68.722656 16.664062-46.332031-50.144531-48.65625 50.449219-61.222657-19.695313-21.558593 67.941406-62.121094 13.199219 16.632812 68.59375-48.253906 43.585938 48.71875 51.105469-19.824219 61.628906 68.191407 21.65625 14.875 61.835937 38.160156-10.039062v101.734375l75.003906-56.25 75.003906 56.25v-101.191406l35.304688 10.800781 21.085937-66.328125 62.113281-13.199219-16.636718-68.59375zm-210.125 101.015624v-31.503906c17.457032-6.191406 30-22.867187 30-42.421875 0-24.8125-20.1875-45-45-45-8.273437 0-15.003906-6.730469-15.003906-15.003906 0-8.269531 6.730469-15 15.003906-15 8.269532 0 15 6.730469 15 15h30c0-19.554687-12.542968-36.226563-30-42.421875v-31.503906c50.816406 7.300781 90.003906 51.121094 90.003906 103.929687 0 52.804688-39.1875 96.625-90.003906 103.925781zm-30.003906-176.351562c-17.457031 6.195312-30 22.867188-30 42.421875 0 24.816406 20.1875 45.003906 45.003906 45.003906 8.269532 0 15 6.730469 15 15 0 8.273438-6.730468 15-15 15-8.273437 0-15.003906-6.726562-15.003906-15h-30c0 19.554688 12.542969 36.230469 30 42.421875v31.503906c-50.816406-7.300781-90.003906-51.121093-90.003906-103.925781 0-52.808593 39.1875-96.628906 90.003906-103.929687zm60.003906 297.433594-45-33.75-45.003906 33.75v-97.726563c14.082031 4.996094 29.230469 7.722657 45.003906 7.722657 15.769532 0 30.917969-2.726563 45-7.722657zm63.085938-122.433594-17.378906 54.671875-15.707032-4.804687v-40.242188c36.15625-24.25 60.003906-65.488281 60.003906-112.199219 0-74.441406-60.5625-135.007812-135.003906-135.007812-74.445312 0-135.007812 60.566406-135.007812 135.007812 0 46.710938 23.847656 87.949219 60.003906 112.199219v40.054688l-16.160156 4.25-11.667969-48.5-55.621094-17.660157 16.066407-49.941406-39.761719-41.710937 38.640625-34.902344-13.570313-55.953125 49.007813-10.414063 17.726562-55.875 50.347656 16.199219 39.578126-41.035156 36.738281 39.753906 55.851562-13.539063 10.398438 49.003907 55.878906 17.730469-16.066406 49.933593 39.761719 41.710938-38.644532 34.902343 13.570313 55.957032zm0 0"/></svg>