<svg height="512pt" viewBox="-60 0 512 512" width="512pt" xmlns="http://www.w3.org/2000/svg"><path d="m360.085938 90h-59.972657c-7.300781-50.816406-51.117187-90-103.921875-90-52.804687 0-96.625 39.183594-103.925781 90h-59.96875l-32.296875 422h392.382812zm-163.894532-60c36.21875 0 66.523438 25.808594 73.492188 60h-146.984375c6.96875-34.191406 37.273437-60 73.492187-60zm-105 90v30h30v-30h150v30h30v-30h31.105469l23.109375 302h-318.433594l23.113282-302zm-58.808594 362 2.296876-30h323.023437l2.296875 30zm0 0"/><path d="m196.191406 330c-8.269531 0-15-6.730469-15-15h-30c0 19.554688 12.539063 36.226562 30 42.421875v31.378906h30v-31.378906c17.457032-6.195313 30-22.867187 30-42.421875 0-24.8125-20.1875-45-45-45-8.269531 0-15-6.730469-15-15s6.730469-15 15-15c8.269532 0 15 6.730469 15 15h30c0-19.554688-12.542968-36.226562-30-42.421875v-31.578125h-30v31.578125c-17.460937 6.195313-30 22.867187-30 42.421875 0 24.8125 20.1875 45 45 45 8.269532 0 15 6.730469 15 15s-6.730468 15-15 15zm0 0"/></svg>