<svg height="512pt" viewBox="0 -31 512 512" width="512pt" xmlns="http://www.w3.org/2000/svg"><path d="m0 0v450h512c0-23.4375 0-434.726562 0-450zm482 181.507812c-29.34375 5.980469-52.511719 29.148438-58.492188 58.492188h-273.507812v-210h273.507812c5.980469 29.34375 29.148438 52.511719 58.492188 58.492188zm0 31.070313v27.421875h-27.421875c4.527344-12.765625 14.65625-22.894531 27.421875-27.421875zm-362 207.421875h-30v-150h30zm-90-207.421875c12.765625 4.527344 22.894531 14.65625 27.421875 27.421875h-27.421875zm30-17.539063c-8.726562-6.5625-18.921875-11.273437-30-13.53125v-93.023437c11.078125-2.257813 21.277344-6.957031 30-13.519531zm30 44.960938v-210h30v210zm392-182.578125c-12.765625-4.527344-22.894531-14.65625-27.421875-27.421875h27.421875zm-424.578125-27.421875c-4.527344 12.765625-14.65625 22.894531-27.421875 27.421875v-27.421875zm2.578125 240v30h-30v-30zm0 60v30h-30v-30zm-30 60h30v30h-30zm452 30h-332v-30h332zm0-60h-332v-30h332zm0-60h-332v-30h332zm0 0"/><path d="m361 120h30v30h-30zm0 0"/><path d="m256 60c-41.355469 0-75 33.644531-75 75s33.644531 75 75 75 75-33.644531 75-75-33.644531-75-75-75zm0 120c-24.8125 0-45-20.1875-45-45s20.1875-45 45-45 45 20.1875 45 45-20.1875 45-45 45zm0 0"/></svg>