<svg height="512pt" viewBox="-16 0 512 512" width="512pt" xmlns="http://www.w3.org/2000/svg"><path d="m420 272v-30h-120v-120h-30v-122h-270v512h444.269531l4.148438-8.292969c20.660156-41.324219 31.582031-87.585937 31.582031-133.789062v-97.917969zm-180-242v92h-30v210h-60v90h-120v-392zm-210 452v-30h125.730469l15 30zm420-112.082031c0 38.503906-8.433594 77.058593-24.449219 112.082031h-221.28125l-24.269531-48.539062v-71.460938h30v45.75h30v-255.75h30v195h30v-75h30v75h30v-75h30v75h30v-45h30zm0 0"/><path d="m105 60h60v30h-60zm0 0"/></svg>