<svg height="100px" fill="white" viewBox="0 -31 512 512" width="512pt" xmlns="http://www.w3.org/2000/svg"><path d="m482 120v-60h-60v-60h-347c-41.355469 0-75 33.644531-75 75v300c0 41.355469 33.644531 75 75 75h437v-330zm-120 210v-90h120v90zm90-120v-60h30v60zm0-90c-11.433594 0-342.484375 0-362 0v-30h362zm-377-90h317v30h-332v57.421875c-17.460938-6.195313-30-22.867187-30-42.421875 0-24.8125 20.1875-45 45-45zm-45 345v-240.039062c12.542969 9.4375 28.128906 15.039062 45 15.039062h347v60h-90v150h90v60h-347c-24.8125 0-45-20.1875-45-45zm422 45v-60h30v60zm0 0"/><path d="m392 270h30v30h-30zm0 0"/><path d="m195 240c8.269531 0 15 6.730469 15 15h30c0-19.554688-12.539062-36.226562-30-42.421875v-31.578125h-30v31.578125c-17.460938 6.195313-30 22.867187-30 42.421875 0 24.8125 20.1875 45 45 45 8.269531 0 15 6.730469 15 15s-6.730469 15-15 15-15-6.730469-15-15h-30c0 19.554688 12.539062 36.226562 30 42.421875v31.378906h30v-31.378906c17.460938-6.195313 30-22.867187 30-42.421875 0-24.8125-20.1875-45-45-45-8.269531 0-15-6.730469-15-15s6.730469-15 15-15zm0 0"/></svg>