<svg height="512pt" viewBox="0 0 512 512" width="512pt" xmlns="http://www.w3.org/2000/svg"><path d="m484.25 169.960938-38.980469-77.960938h-198.539062l-38.980469 77.960938 138.25 138.253906zm-82.855469 12.039062h28.390625l-45.425781 45.425781zm-55.394531 62.28125-23.355469-62.28125h46.710938zm-25.789062-92.28125 7.5-30h36.578124l7.5 30zm-29.605469 30 17.035156 45.425781-45.425781-45.425781zm151.125-30h-39.019531l-7.5-30h31.519531zm-144.941407-30-7.5 30h-39.019531l15-30zm0 0"/><path d="m331 0h30v62h-30zm0 0"/><path d="m251.292969 6.078125 42.425781 42.425781-21.210938 21.214844-42.429687-42.425781zm0 0"/><path d="m440.703125 6.078125 21.210937 21.214844-42.425781 42.425781-21.210937-21.214844zm0 0"/><path d="m503.226562 368.3125c-11.324218-15.941406-28.144531-26.703125-47.363281-30.304688-19.226562-3.605468-38.796875.339844-55.128906 11.09375l-46.148437 30.402344c4.75-9.839844 7.414062-20.867187 7.414062-32.503906v-15h-93.679688c-3.648437 0-7.167968-1.328125-9.910156-3.738281l-7.042968-6.199219c-39.546876-34.800781-99.1875-34.800781-138.730469 0l-11.296875 9.9375h-101.339844v150h104.566406l90 30h142.457032l174.648437-131.808594zm-411.226562 83.6875h-62v-90h62zm234.976562 30h-127.542968l-77.433594-25.8125v-102.40625l10.453125-9.199219c28.246094-24.855469 70.847656-24.855469 99.09375 0l7.046875 6.199219c8.21875 7.234375 18.777344 11.21875 29.726562 11.21875h61.109376c-6.191407 17.460938-22.871094 30-42.429688 30h-75v30h132.605469l72.632812-47.84375c16.136719-10.628906 36.4375-9.664062 51.210938 1.074219zm0 0"/></svg>