<svg height="512pt" viewBox="0 -16 512 512" width="512pt" xmlns="http://www.w3.org/2000/svg"><path d="m316.203125 270.175781c74.488281 0 135.085937-60.601562 135.085937-135.089843 0-74.484376-60.597656-135.085938-135.085937-135.085938s-135.085937 60.601562-135.085937 135.085938c0 74.488281 60.597656 135.089843 135.085937 135.089843zm105.070313-135.089843c0 52.839843-39.210938 96.6875-90.058594 103.992187v-31.523437c17.46875-6.195313 30.019531-22.878907 30.019531-42.449219 0-24.828125-20.203125-45.027344-45.03125-45.027344-8.277344 0-15.007813-6.734375-15.007813-15.011719 0-8.273437 6.730469-15.007812 15.007813-15.007812s15.011719 6.734375 15.011719 15.007812h30.019531c0-19.566406-12.550781-36.25-30.019531-42.445312v-31.523438c50.847656 7.304688 90.058594 51.152344 90.058594 103.988282zm-120.078126-103.988282v31.523438c-17.472656 6.195312-30.019531 22.878906-30.019531 42.445312 0 24.832032 20.199219 45.03125 45.027344 45.03125 8.277344 0 15.011719 6.734375 15.011719 15.007813 0 8.277343-6.734375 15.011719-15.011719 15.011719s-15.007813-6.734376-15.007813-15.011719h-30.019531c0 19.570312 12.546875 36.253906 30.019531 42.449219v31.523437c-50.851562-7.304687-90.058593-51.152344-90.058593-103.992187 0-52.839844 39.207031-96.683594 90.058593-103.988282zm0 0"/><path d="m503.550781 336.527344c-11.332031-15.949219-28.164062-26.71875-47.394531-30.320313-19.238281-3.609375-38.820312.335938-55.164062 11.097657l-46.175782 30.421874c4.75-9.84375 7.417969-20.878906 7.417969-32.523437v-15.007813h-93.742187c-3.652344 0-7.171876-1.332031-9.914063-3.746093l-7.050781-6.199219c-39.570313-34.824219-99.25-34.824219-138.820313 0l-11.300781 9.945312h-101.40625v150.09375h104.632812l90.058594 30.019532h142.550782l174.757812-131.890625zm-411.492187 83.742187h-62.039063v-90.058593h62.039063zm235.128906 30.019531h-127.625l-77.484375-25.828124v-102.472657l10.460937-9.203125c28.261719-24.875 70.894532-24.875 99.15625 0l7.050782 6.203125c8.226562 7.238281 18.789062 11.222657 29.746094 11.222657h61.148437c-6.191406 17.472656-22.886719 30.019531-42.457031 30.019531h-75.046875v30.019531h132.691406l72.679687-47.875c16.144532-10.632812 36.460938-9.667969 51.242188 1.074219zm0 0"/></svg>