<svg height="512pt" viewBox="0 -31 512 512" width="512pt" xmlns="http://www.w3.org/2000/svg"><path d="m455.859375 276.007812c-19.222656-3.601562-38.796875.339844-55.125 11.09375l-46.148437 30.402344c4.75-9.839844 7.414062-20.867187 7.414062-32.503906v-15h-93.679688c-3.648437 0-7.167968-1.328125-9.910156-3.738281l-7.046875-6.199219c-39.542969-34.800781-99.1875-34.800781-138.726562 0l-11.296875 9.9375h-101.339844v150h104.566406l90 30h142.457032l174.648437-131.808594-8.445313-11.878906c-11.324218-15.941406-28.148437-26.703125-47.367187-30.304688zm-363.859375 113.992188h-62v-90h62zm234.976562 30h-127.542968l-77.433594-25.8125v-102.40625l10.453125-9.199219c28.246094-24.855469 70.847656-24.855469 99.09375 0l7.046875 6.199219c8.21875 7.234375 18.777344 11.21875 29.726562 11.21875h61.109376c-6.191407 17.460938-22.875 30-42.429688 30h-75v30h132.601562l72.632813-47.84375c16.136719-10.628906 36.441406-9.664062 51.210937 1.070312zm0 0"/><path d="m181 0v210h331v-210zm301 30v30h-271v-30zm-271 150v-90h271v90zm0 0"/><path d="m362 120h90v30h-90zm0 0"/></svg>