<svg height="512pt" viewBox="-61 0 512 512" width="512pt" xmlns="http://www.w3.org/2000/svg"><path d="m390 62h-75c-15.300781 0-30.171875 4.777344-42.746094 13.605469-.75-.277344-1.507812-.535157-2.257812-.800781-.109375-41.265626-33.707032-74.804688-74.996094-74.804688s-74.886719 33.539062-74.996094 74.804688c-.75.265624-1.507812.523437-2.257812.800781-12.574219-8.828125-27.445313-13.605469-42.746094-13.605469h-75v75c0 13.226562 3.519531 26.027344 10.246094 37.484375-6.804688 17.0625-10.246094 34.691406-10.246094 52.515625 0 33.320312 11.527344 65.054688 32.984375 92-10.300781 62.769531-1.203125 121.5625 28.449219 184.402344l4.058594 8.597656h96.21875l15.140624-60.5625c12.0625.75 24.234376.75 36.296876 0l15.140624 60.5625h96.21875l4.058594-8.597656c29.652344-62.839844 38.75-121.632813 28.449219-184.402344 21.457031-26.945312 32.984375-58.679688 32.984375-92 0-17.824219-3.445312-35.453125-10.246094-52.515625 6.726563-11.457031 10.246094-24.257813 10.246094-37.484375zm-195-32c21.835938 0 40.085938 15.636719 44.148438 36.300781-14.402344-2.859375-29.152344-4.300781-44.148438-4.300781s-29.746094 1.441406-44.148438 4.300781c4.0625-20.664062 22.3125-36.300781 44.148438-36.300781zm110.363281 452h-53.652343l-15.726563-62.910156-13 1.40625c-18.398437 1.996094-37.570313 1.996094-55.972656 0l-12.996094-1.40625-15.726563 62.910156h-53.652343c-20.492188-46.363281-28.554688-90.378906-24.78125-135.996094 36.480469 29.671875 84.371093 45.996094 135.144531 45.996094s98.664062-16.324219 135.144531-45.996094c3.773438 45.617188-4.289062 89.632813-24.78125 135.996094zm54.636719-345c0 9.625-3.1875 18.9375-9.210938 26.925781l-5.421874 7.1875 3.792968 8.164063c7.191406 15.488281 10.839844 31.546875 10.839844 47.722656 0 74.4375-74.019531 135-165 135s-165-60.5625-165-135c0-16.175781 3.648438-32.230469 10.839844-47.722656l3.792968-8.164063-5.421874-7.1875c-6.023438-7.988281-9.210938-17.300781-9.210938-26.925781v-45h45c11 0 21.6875 4.199219 30.085938 11.820312l7.035156 6.382813 8.777344-3.632813c23.375-9.667968 48.304687-14.570312 74.101562-14.570312s50.726562 4.902344 74.101562 14.570312l8.777344 3.632813 7.035156-6.382813c8.398438-7.621093 19.085938-11.820312 30.085938-11.820312h45zm0 0"/><path d="m246.425781 228.179688c-13.910156-10.433594-32.175781-16.179688-51.425781-16.179688s-37.515625 5.746094-51.425781 16.179688c-14.980469 11.234374-23.574219 27.207031-23.574219 43.820312s8.59375 32.585938 23.574219 43.820312c13.910156 10.433594 32.175781 16.179688 51.425781 16.179688s37.515625-5.746094 51.425781-16.179688c14.980469-11.234374 23.574219-27.207031 23.574219-43.820312s-8.59375-32.585938-23.574219-43.820312zm-51.425781 73.820312c-24.394531 0-45-13.738281-45-30s20.605469-30 45-30 45 13.738281 45 30-20.605469 30-45 30zm0 0"/><path d="m120 152h30v30h-30zm0 0"/><path d="m240 152h30v30h-30zm0 0"/></svg>