<svg height="512pt" viewBox="0 0 512 512" width="512pt" xmlns="http://www.w3.org/2000/svg"><path d="m0 0v272h512v-272zm482 57.421875c-12.765625-4.527344-22.894531-14.65625-27.421875-27.421875h27.421875zm-58.492188 184.578125h-335.015624c-5.980469-29.34375-29.148438-52.511719-58.492188-58.492188v-95.015624c29.34375-5.980469 52.511719-29.148438 58.492188-58.492188h335.015624c5.980469 29.34375 29.148438 52.511719 58.492188 58.492188v95.019531c-29.34375 5.976562-52.511719 29.144531-58.492188 58.488281zm-366.085937-212c-4.527344 12.765625-14.65625 22.894531-27.421875 27.421875v-27.421875zm-27.421875 184.578125c12.765625 4.527344 22.894531 14.65625 27.421875 27.421875h-27.421875zm424.578125 27.421875c4.527344-12.765625 14.65625-22.894531 27.421875-27.421875v27.421875zm0 0"/><path d="m121 121h30v30h-30zm0 0"/><path d="m361 121h30v30h-30zm0 0"/><path d="m256 61c-41.355469 0-75 33.644531-75 75s33.644531 75 75 75 75-33.644531 75-75-33.644531-75-75-75zm0 120c-24.8125 0-45-20.1875-45-45s20.1875-45 45-45 45 20.1875 45 45-20.1875 45-45 45zm0 0"/><path d="m241 302h30v150h-30zm0 0"/><path d="m181 362h30v120h-30zm0 0"/><path d="m241 482h30v30h-30zm0 0"/><path d="m121 302h30v90h-30zm0 0"/><path d="m121 422h30v30h-30zm0 0"/><path d="m361 302h30v90h-30zm0 0"/><path d="m361 422h30v30h-30zm0 0"/><path d="m181 302h30v30h-30zm0 0"/><path d="m301 362h30v120h-30zm0 0"/><path d="m301 302h30v30h-30zm0 0"/></svg>