<svg height="512pt" viewBox="-60 0 512 512" width="512pt" xmlns="http://www.w3.org/2000/svg"><path d="m342.21875 77.875c-24.058594-8.019531-40.222656-30.445312-40.222656-55.808594v-13.847656l-13.707032-1.984375c-28.164062-4.078125-60.078124-6.234375-92.292968-6.234375-32.210938 0-64.125 2.15625-92.289063 6.234375l-13.707031 1.984375v13.847656c0 25.359375-16.164062 47.789063-40.222656 55.808594l-49.777344 16.59375v150.933594c0 120.382812 76.730469 226.84375 190.9375 264.910156l5.058594 1.6875 5.0625-1.6875c114.203125-38.066406 190.9375-144.527344 190.9375-264.910156v-150.933594zm19.777344 167.527344c0 105.886718-66.507813 199.707031-166 234.929687-99.488282-35.222656-165.996094-129.042969-165.996094-234.929687v-129.3125l29.261719-9.753906c32.355469-10.785157 55.257812-38.832032 59.878906-71.894532 23.929687-2.914062 50.253906-4.441406 76.855469-4.441406 26.605468 0 52.929687 1.527344 76.859375 4.441406 4.621093 33.0625 27.519531 61.109375 59.878906 71.894532l29.261719 9.753906zm0 0"/><path d="m252.417969 70.8125-3.941407-8.785156-9.605468-.632813c-28.140625-1.851562-57.601563-1.851562-85.746094 0l-9.605469.632813-3.9375 8.78125c-13.234375 29.476562-38.34375 52.550781-68.898437 63.3125l-10.683594 3.761718v107.511719c0 86.292969 50.816406 164.8125 129.457031 200.035157l6.542969 2.929687 6.539062-2.929687c78.644532-35.222657 129.457032-113.742188 129.457032-200.035157v-107.496093l-10.683594-3.761719c-30.535156-10.761719-55.652344-33.847657-68.894531-63.324219zm49.578125 174.582031c0 72.375-41.394532 138.40625-106 169.980469-64.601563-31.574219-105.996094-97.605469-105.996094-169.980469v-86.632812c31.375-13.519531 57.398438-37.648438 73.1875-67.910157 21.664062-1.132812 43.960938-1.132812 65.625 0 15.796875 30.261719 41.820312 54.398438 73.183594 67.921876zm0 0"/><path d="m195.996094 210.996094c8.273437 0 15 6.730468 15 15h30c0-19.554688-12.539063-36.226563-30-42.417969v-32.578125h-30v32.578125c-17.457032 6.191406-29.996094 22.863281-29.996094 42.417969 0 24.8125 20.183594 45 44.996094 45 8.273437 0 15 6.730468 15 15 0 8.269531-6.726563 15-15 15-8.269532 0-15-6.730469-15-15h-29.996094c0 19.554687 12.539062 36.226562 29.996094 42.421875v31.378906h30v-31.378906c17.460937-6.195313 30-22.867188 30-42.421875 0-24.8125-20.1875-45-45-45-8.269532 0-15-6.726563-15-15 0-8.269532 6.730468-15 15-15zm0 0"/></svg>