<svg height="512pt" viewBox="-31 0 512 512" width="512pt" xmlns="http://www.w3.org/2000/svg"><path d="m296.757812 422-22.621093-92h145.863281v-270h-30v-60h-120v60h-30v-60h-150v60h-60v270h145.863281l-22.621093 92h-153.242188v90h450v-90zm3.242188-392h60v30h-60zm-180 0h90v150h-90zm-30 60v120h150v-120h150v150h-330v-150zm-30 180h330v30h-330zm146.757812 60h36.484376l22.621093 92h-81.726562zm213.242188 152h-390v-30h390zm0 0"/><path d="m270 120h30v30h-30zm0 0"/><path d="m330 120h30v30h-30zm0 0"/><path d="m330 180h30v30h-30zm0 0"/><path d="m270 180h30v30h-30zm0 0"/></svg>