<svg height="512pt" viewBox="0 0 512 512" width="512pt" xmlns="http://www.w3.org/2000/svg"><path d="m256 0c-141.484375 0-256 114.496094-256 256 0 141.480469 114.496094 256 256 256 141.480469 0 256-114.496094 256-256 0-141.480469-114.496094-256-256-256zm0 482c-124.902344 0-226-101.078125-226-226 0-124.902344 101.078125-226 226-226 124.902344 0 226 101.078125 226 226 0 124.902344-101.078125 226-226 226zm0 0"/><path d="m118.171875 118.171875c-8.820313 8.820313-16.835937 18.53125-23.816406 28.855469l24.851562 16.804687c5.914063-8.746093 12.703125-16.972656 20.179688-24.445312 7.476562-7.480469 15.703125-14.265625 24.445312-20.175781l-16.804687-24.855469c-10.324219 6.980469-20.03125 14.992187-28.855469 23.816406zm0 0"/><path d="m91 256c0-11.183594 1.128906-22.359375 3.355469-33.21875l-29.386719-6.027344c-2.632812 12.839844-3.96875 26.042969-3.96875 39.246094s1.335938 26.40625 3.96875 39.246094l29.390625-6.027344c-2.230469-10.859375-3.359375-22.035156-3.359375-33.21875zm0 0"/><path d="m119.207031 348.171875-24.851562 16.804687c6.980469 10.324219 14.996093 20.03125 23.816406 28.851563 8.820313 8.824219 18.53125 16.835937 28.851563 23.816406l16.804687-24.851562c-8.742187-5.914063-16.96875-12.703125-24.441406-20.179688-7.476563-7.472656-14.265625-15.695312-20.179688-24.441406zm0 0"/><path d="m222.78125 417.644531-6.027344 29.386719c12.839844 2.632812 26.042969 3.96875 39.246094 3.96875s26.40625-1.335938 39.246094-3.96875l-6.027344-29.386719c-21.722656 4.453125-44.714844 4.453125-66.4375 0zm0 0"/><path d="m372.613281 372.613281c-7.476562 7.476563-15.699219 14.265625-24.441406 20.179688l16.804687 24.851562c10.320313-6.980469 20.027344-14.992187 28.851563-23.816406 8.820313-8.820313 16.835937-18.527344 23.816406-28.851563l-24.851562-16.804687c-5.914063 8.746094-12.703125 16.96875-20.179688 24.441406zm0 0"/><path d="m447.03125 216.753906-29.390625 6.027344c2.230469 10.859375 3.359375 22.035156 3.359375 33.21875s-1.128906 22.359375-3.355469 33.21875l29.386719 6.027344c2.632812-12.839844 3.96875-26.042969 3.96875-39.246094s-1.335938-26.40625-3.96875-39.246094zm0 0"/><path d="m392.792969 163.828125 24.851562-16.804687c-6.980469-10.324219-14.992187-20.03125-23.816406-28.851563-8.824219-8.824219-18.53125-16.835937-28.851563-23.816406l-16.804687 24.851562c8.742187 5.910157 16.964844 12.699219 24.441406 20.179688 7.476563 7.472656 14.265625 15.699219 20.179688 24.441406zm0 0"/><path d="m289.21875 94.355469 6.027344-29.386719c-25.679688-5.269531-52.8125-5.269531-78.492188 0l6.027344 29.386719c21.722656-4.453125 44.714844-4.453125 66.4375 0zm0 0"/><path d="m256 211c8.269531 0 15 6.730469 15 15h30c0-19.554688-12.539062-36.226562-30-42.421875v-31.578125h-30v31.578125c-17.460938 6.195313-30 22.867187-30 42.421875 0 24.8125 20.1875 45 45 45 8.269531 0 15 6.730469 15 15s-6.730469 15-15 15-15-6.730469-15-15h-30c0 19.554688 12.539062 36.226562 30 42.421875v31.378906h30v-31.378906c17.460938-6.195313 30-22.867187 30-42.421875 0-24.8125-20.1875-45-45-45-8.269531 0-15-6.730469-15-15s6.730469-15 15-15zm0 0"/></svg>