<svg height="512pt" viewBox="-121 0 512 512" width="512pt" xmlns="http://www.w3.org/2000/svg"><path d="m0 0v512h270v-512zm240 30v392h-210v-392zm-210 452v-30h210v30zm0 0"/><path d="m105 60h60v30h-60zm0 0"/><path d="m135 300c-8.269531 0-15-6.730469-15-15h-30c0 19.554688 12.539062 36.226562 30 42.421875v31.378906h30v-31.378906c17.460938-6.195313 30-22.867187 30-42.421875 0-24.8125-20.1875-45-45-45-8.269531 0-15-6.730469-15-15s6.730469-15 15-15 15 6.730469 15 15h30c0-19.554688-12.539062-36.226562-30-42.421875v-31.578125h-30v31.578125c-17.460938 6.195313-30 22.867187-30 42.421875 0 24.8125 20.1875 45 45 45 8.269531 0 15 6.730469 15 15s-6.730469 15-15 15zm0 0"/></svg>