<svg height="512pt" viewBox="0 0 512 511" width="512pt" xmlns="http://www.w3.org/2000/svg"><path d="m512 122.488281v-56.648437l-256-65.339844-256 65.339844v56.648437h31l.003906 30h-31.003906v30h31.003906v60h15c8.269532 0 14.996094 6.730469 14.996094 15v105h-30v60h-31v90h512v-90h-31v-60h-30v-105c0-8.269531 6.726562-15 15-15h15v-60h31v-30h-31v-30zm-482-33.34375 226-57.683593 226 57.683593v3.347657h-452zm31 125.914063v-32.570313h80.730469l-15.980469 31.960938c-3.105469 6.214843-4.75 13.171875-4.75 20.121093v127.917969h-30v-105c0-19.554687-12.539062-36.238281-30-42.429687zm275.730469-32.570313 22.683593 45.375c1.039063 2.074219 1.585938 4.394531 1.585938 6.707031v127.917969h-30v60h-150v-60h-30v-127.917969c0-2.3125.546875-4.636718 1.582031-6.707031l22.6875-45.375zm-275.730469 210h90v30h-90zm421 90h-452v-30h452zm-121-60v-30h90v30zm90-207.429687c-17.460938 6.191406-30 22.875-30 42.433594v105h-30v-127.921876c0-6.949218-1.644531-13.90625-4.75-20.125l-15.980469-31.957031h80.730469zm0-62.570313h-390v-30h390zm0 0"/><path d="m256 347.488281c-8.269531 0-15-6.726562-15-15h-30c0 19.558594 12.539062 36.230469 30 42.421875v31.378906h30v-31.378906c17.460938-6.191406 30-22.863281 30-42.421875 0-24.8125-20.1875-45-45-45-8.269531 0-15-6.726562-15-15 0-8.269531 6.730469-15 15-15s15 6.730469 15 15h30c0-19.554687-12.539062-36.226562-30-42.417969v-31.582031h-30v31.582031c-17.460938 6.191407-30 22.863282-30 42.417969 0 24.816407 20.1875 45 45 45 8.269531 0 15 6.730469 15 15 0 8.273438-6.730469 15-15 15zm0 0"/></svg>