<svg height="512pt" viewBox="0 0 512 512" width="512pt" xmlns="http://www.w3.org/2000/svg"><path d="m329.863281 100.957031v-100.957031h-329.863281v329.863281h119.949219v81.179688l61.976562-61.976563v81.753906h128.730469l81.179688 81.179688v-81.179688h119.949218v-329.863281zm-179.925781 237.6875v-38.769531h-119.949219v-269.886719h269.886719v70.96875h-117.949219v205.703125zm331.863281 62.1875h-119.953125v38.773438l-38.769531-38.773438h-111.167969v-269.886719h269.890625zm0 0"/><path d="m346.855469 310.871094c-8.265625 0-14.992188-6.726563-14.992188-14.996094h-29.988281c0 19.546875 12.535156 36.214844 29.988281 42.402344v31.367187h29.984375v-31.367187c17.453125-6.1875 29.988282-22.855469 29.988282-42.402344 0-24.800781-20.175782-44.980469-44.980469-44.980469-8.265625 0-14.992188-6.726562-14.992188-14.992187 0-8.269532 6.726563-14.996094 14.992188-14.996094 8.269531 0 14.992187 6.726562 14.992187 14.996094h29.988282c0-19.546875-12.535157-36.214844-29.988282-42.402344v-31.566406h-29.984375v31.566406c-17.453125 6.1875-29.988281 22.855469-29.988281 42.402344 0 24.800781 20.179688 44.980468 44.980469 44.980468 8.269531 0 14.992187 6.726563 14.992187 14.992188 0 8.269531-6.722656 14.996094-14.992187 14.996094zm0 0"/></svg>