<svg height="512pt" viewBox="0 0 512 512" width="512pt" xmlns="http://www.w3.org/2000/svg"><path d="m512 182h-241v-92h30v60h30v-120h-30v30h-30v-60h-90v182h-32.507812c-6.96875-34.191406-37.273438-60-73.492188-60-41.355469 0-75 33.644531-75 75v240c0 41.355469 33.644531 75 74.996094 75h376.003906v-60h61zm-286 134.390625c-9.863281-21.371094-15-44.648437-15-68.472656v-97.917969h30v97.917969c0 23.824219-5.136719 47.101562-15 68.472656zm15-196.390625h-30v-30h30zm0-90v30h-30v-30zm-166 122c24.8125 0 45 20.1875 45 45v180.039062c-12.542969-9.4375-28.128906-15.039062-45-15.039062s-32.457031 5.601562-45 15.039062v-180.039062c0-24.8125 20.1875-45 45-45zm346 330h-346.003906c-24.808594 0-44.996094-20.1875-44.996094-45s20.1875-45 45-45 45 20.1875 45 45v15h301zm61-60h-332v-210h31v35.917969c0 36.804687 10.363281 72.488281 30 103.511719v40.570312h30v-40.570312c19.636719-31.023438 30-66.707032 30-103.511719v-35.917969h211zm0 0"/><path d="m301 362h150v30h-150zm0 0"/><path d="m301 302h90v30h-90zm0 0"/><path d="m301 242h150v30h-150zm0 0"/></svg>