<svg height="512pt" viewBox="-16 0 512 512" width="512pt" xmlns="http://www.w3.org/2000/svg"><path d="m345 242c-27.730469 0-53.535156 8.410156-75 22.804688v-24.804688h-30v-30h30v-60h30v-90h-30v-60h-240v90h30v30h-30v60h-30v90h30v180h201.488281c24.050781 37.273438 65.949219 62 113.511719 62 74.4375 0 135-60.5625 135-135s-60.5625-135-135-135zm-133.933594 118h-151.066406v-30h158.445312c-3.554687 9.539062-6.0625 19.585938-7.378906 30zm-151.066406-330h180v30c-15.28125 0-155.769531 0-180 0zm30 60h180v30h-180zm-30 60h180v30c-10.410156 0-169.433594 0-180 0zm-30 60h180v30c-10.566406 0-169.589844 0-180 0zm30 60h180v22.25c-2.03125 2.511719-3.972656 5.097656-5.820312 7.75h-174.179688zm0 150v-30h150.628906c.996094 10.386719 3.171875 20.429688 6.394532 30zm180-43c0-52.804688 39.183594-96.621094 90-103.925781v31.503906c-17.460938 6.195313-30 22.867187-30 42.421875 0 24.8125 20.1875 45 45 45 8.269531 0 15 6.730469 15 15s-6.730469 15-15 15-15-6.730469-15-15h-30c0 19.554688 12.539062 36.226562 30 42.421875v31.503906c-50.816406-7.304687-90-51.121093-90-103.925781zm120 103.925781v-31.503906c17.460938-6.195313 30-22.867187 30-42.421875 0-24.8125-20.1875-45-45-45-8.269531 0-15-6.730469-15-15s6.730469-15 15-15 15 6.730469 15 15h30c0-19.554688-12.539062-36.226562-30-42.421875v-31.503906c50.816406 7.304687 90 51.121093 90 103.925781s-39.183594 96.621094-90 103.925781zm0 0"/></svg>