<svg height="100åpx" fill="white" viewBox="0 1 511 511.999" width="511pt" xmlns="http://www.w3.org/2000/svg"><path d="m512.476562 256.113281c0-63.0625-22.785156-122.664062-64.464843-169.425781l30.683593-30.683594-88.117187-17.738281c-40.25-25.03125-86.636719-38.265625-134.175781-38.265625-62.929688 0-122.453125 22.789062-169.214844 64.484375l-30.683594-30.679687-17.738281 88.117187c-25.03125 40.25-38.265625 86.632813-38.265625 134.175781 0 62.925782 22.789062 122.453125 64.484375 169.214844l-30.683594 30.683594 88.121094 17.738281c40.25 25.03125 86.632813 38.265625 134.175781 38.265625 62.925782 0 122.453125-22.789062 169.214844-64.488281l30.742188 30.746093 17.300781-87.09375.453125-.449218.175781-.914063c24.855469-40.042969 37.992187-86.257812 37.992187-133.6875zm-95.960937-159.128906c42.546875 42.546875 65.976563 99.058594 65.976563 159.128906 0 23.902344-3.78125 47.453125-11.109376 69.832031l-34.785156 6.957032c10.359375-24.140625 15.75-50.253906 15.75-76.921875 0-52.078125-20.257812-101.015625-57.035156-137.792969l-10.601562-10.601562-11.992188 11.996093-11.308594-56.539062c71.648438 14.34375 53.550782 10.71875 56.53125 11.316406l-12.027344 12.023437zm-54.480469 286.753906c-29.550781 24.683594-66.488281 38.125-105.515625 38.125-29.90625 0-58.972656-8.003906-84.40625-23.175781l-13.417969-67.085938-29.933593 29.933594c-24.6875-29.550781-38.125-66.488281-38.125-105.515625 0-29.90625 8.003906-58.972656 23.171875-84.40625l67.089844-13.414062-29.9375-29.9375c29.550781-24.683594 66.492187-38.125 105.515624-38.125 29.910157 0 58.972657 8.003906 84.40625 23.171875l13.417969 67.089844 29.9375-29.933594c24.683594 29.550781 38.121094 66.488281 38.121094 105.515625 0 29.90625-8 58.972656-23.171875 84.40625l-67.085938 13.414062zm-287.175781-289.175781 12.023437 12.023438 10.601563-10.601563c42.5625-42.5625 99-66 158.917969-66 23.960937 0 47.582031 3.8125 70.054687 11.195313l6.945313 34.722656c-24.140625-10.359375-50.253906-15.75-76.925782-15.75-52.074218 0-101.011718 20.257812-137.789062 57.035156l-10.601562 10.601562 11.992187 11.992188-56.535156 11.308594c14.34375-71.648438 10.71875-53.546875 11.316406-56.527344zm21.625 320.453125c-42.5625-42.5625-66-99-66-158.917969 0-23.960937 3.8125-47.585937 11.195313-70.058594l34.722656-6.941406c-10.359375 24.136719-15.75 50.25-15.75 76.921875 0 52.078125 20.257812 101.011719 57.035156 137.792969l10.601562 10.601562 11.992188-11.996093 11.308594 56.535156c-71.648438-14.339844-53.550782-10.71875-56.53125-11.3125l12.027344-12.023437zm341.59375 2.363281-11.964844-11.964844c-50.335937 48.660157-97.503906 76.601563-169.515625 76.601563-23.960937 0-47.585937-3.8125-70.054687-11.195313l-6.945313-34.722656c24.136719 10.359375 50.253906 15.75 76.921875 15.75 52.078125 0 101.015625-20.257812 137.792969-57.035156l10.601562-10.601562-11.996093-11.992188 56.628906-11.328125c-12.332031 60.746094-11.421875 56.261719-11.46875 56.488281zm0 0"/><path d="m256.5 211.023438c8.265625 0 14.992188 6.726562 14.992188 14.992187h29.984374c0-19.542969-12.535156-36.210937-29.984374-42.398437v-31.5625h-29.984376v31.5625c-17.449218 6.1875-29.984374 22.855468-29.984374 42.398437 0 24.800781 20.175781 44.976563 44.976562 44.976563 8.265625 0 14.992188 6.726562 14.992188 14.992187s-6.726563 14.992187-14.992188 14.992187c-8.269531 0-14.992188-6.726562-14.992188-14.992187h-29.984374c0 19.542969 12.535156 36.207031 29.984374 42.398437v31.363282h29.984376v-31.363282c17.449218-6.191406 29.984374-22.855468 29.984374-42.398437 0-24.800781-20.175781-44.976563-44.976562-44.976563-8.269531 0-14.992188-6.726562-14.992188-14.992187s6.722657-14.992187 14.992188-14.992187zm0 0"/></svg>