<svg height="512pt" viewBox="-61 0 512 512" width="512pt" xmlns="http://www.w3.org/2000/svg"><path d="m332.734375 407.421875c-24.511719-6.796875-55.976563-11.589844-90.492187-13.882813 6.988281-10.371093 13.589843-20.148437 19.855468-29.425781 42.507813-62.949219 65.921875-97.621093 79.765625-124.5 15.246094-29.605469 18.136719-49.0625 18.136719-74.613281 0-90.980469-74.019531-165-165-165s-165 74.019531-165 165c0 54.066406 13.105469 73.480469 98.390625 199.820312 6.117187 9.0625 12.558594 18.609376 19.371094 28.71875-34.519531 2.292969-65.980469 7.085938-90.496094 13.882813-24.15625 6.699219-57.265625 19.390625-57.265625 44.578125 0 26.984375 37.929688 39.835938 64.082031 46.371094 35.152344 8.789062 81.648438 13.628906 130.917969 13.628906s95.765625-4.839844 130.917969-13.628906c26.210937-6.550782 64.082031-19.40625 64.082031-46.371094 0-25.175781-33.078125-37.871094-57.265625-44.578125zm-272.734375-242.421875c0-74.4375 60.5625-135 135-135s135 60.5625 135 135c0 44.953125-10.5625 60.59375-92.761719 182.324219-12.578125 18.625-26.496093 39.230469-42.238281 62.710937-15.542969-23.183594-29.304688-43.566406-41.746094-62-82.636718-122.417968-93.253906-138.148437-93.253906-183.035156zm251.648438 305.921875c-31.96875 7.144531-73.394532 11.078125-116.648438 11.078125s-84.679688-3.933594-116.648438-11.078125c-34.496093-7.710937-44.945312-16.019531-47.675781-18.921875 2.546875-2.707031 11.816407-10.113281 41.195313-17.394531 25.800781-6.394531 59.417968-10.628907 95.398437-12.058594 4.902344 7.308594 27.730469 41.449219 27.730469 41.449219s22.828125-34.144532 27.730469-41.449219c35.980469 1.429687 69.597656 5.664063 95.398437 12.058594 29.378906 7.28125 38.648438 14.6875 41.195313 17.394531-2.730469 2.902344-13.179688 11.210938-47.675781 18.921875zm0 0"/><path d="m195 240c-8.269531 0-15-6.730469-15-15h-30c0 19.554688 12.539062 36.226562 30 42.421875v31.378906h30v-31.378906c17.460938-6.195313 30-22.867187 30-42.421875 0-24.8125-20.1875-45-45-45-8.269531 0-15-6.730469-15-15s6.730469-15 15-15 15 6.730469 15 15h30c0-19.554688-12.539062-36.226562-30-42.421875v-31.578125h-30v31.578125c-17.460938 6.195313-30 22.867187-30 42.421875 0 24.8125 20.1875 45 45 45 8.269531 0 15 6.730469 15 15s-6.730469 15-15 15zm0 0"/></svg>