<svg height="512pt" viewBox="0 -31 512 512" width="512pt" xmlns="http://www.w3.org/2000/svg"><path d="m180 450h332v-210h-332zm30-30v-90h272v90zm272-150v30h-272v-30zm0 0"/><path d="m332 0h-332v210h332zm-30 57.421875c-12.765625-4.527344-22.894531-14.65625-27.421875-27.421875h27.421875zm-58.492188 122.578125h-155.015624c-5.980469-29.34375-29.148438-52.511719-58.492188-58.492188v-33.019531c29.34375-5.976562 52.511719-29.144531 58.492188-58.488281h155.019531c5.976562 29.34375 29.144531 52.511719 58.488281 58.492188v33.019531c-29.34375 5.976562-52.511719 29.144531-58.492188 58.488281zm-186.085937-150c-4.527344 12.765625-14.65625 22.894531-27.421875 27.421875v-27.421875zm-27.421875 122.578125c12.765625 4.527344 22.894531 14.65625 27.421875 27.421875h-27.421875zm244.578125 27.421875c4.527344-12.765625 14.65625-22.894531 27.421875-27.421875v27.421875zm0 0"/><path d="m166 45c-33.085938 0-60 26.914062-60 60s26.914062 60 60 60 60-26.914062 60-60-26.914062-60-60-60zm0 90c-16.542969 0-30-13.457031-30-30s13.457031-30 30-30 30 13.457031 30 30-13.457031 30-30 30zm0 0"/><path d="m362 360h90v30h-90zm0 0"/><path d="m75 344.886719v-23.515625l19.117188 19.121094 21.214843-21.214844-55.605469-55.605469-55.609374 55.605469 21.214843 21.214844 19.667969-19.671876v24.066407c0 41.351562 33.644531 75 75 75v-30c-24.8125 0-45-20.1875-45-45zm0 0"/><path d="m437 104.886719v24.0625l-19.667969-19.671875-21.214843 21.214844 55.605468 55.605468 55.605469-55.605468-21.210937-21.214844-19.117188 19.117187v-23.511719c0-41.355468-33.644531-75-75-75v30c24.8125.003907 45 20.1875 45 45.003907zm0 0"/></svg>